<svg width="37" height="24" viewBox="0 0 37 24" fill="none" xmlns="http://www.w3.org/2000/svg">
<path d="M18.4889 0.00313507C18.4943 0.00250806 18.5048 0.000940517 18.5098 0C19.1485 1.09508 19.6727 2.25724 20.0572 3.46361C20.5263 4.94273 20.7659 6.49678 20.7247 8.04769C20.693 9.40298 20.4467 10.7501 20.0258 12.0389C19.6718 13.1171 19.2002 14.156 18.6363 15.1426C18.7177 15.3003 18.9241 15.2762 19.0654 15.2232C19.357 15.1072 19.583 14.8799 19.7887 14.6523C20.1986 14.1692 20.4943 13.6027 20.7412 13.0243C20.9634 12.4992 21.1383 11.9555 21.2886 11.4063C21.6455 10.1974 22.3237 9.10703 23.1038 8.12168C23.8175 7.22631 24.6334 6.41276 25.5117 5.67508C26.5012 4.84742 27.5744 4.11351 28.7256 3.52255C29.402 3.18365 30.1072 2.89209 30.8457 2.71371C30.8026 4.97565 30.5085 7.26957 29.6311 9.37445C29.2505 10.2911 28.756 11.1624 28.1513 11.9527C27.1288 13.298 25.7855 14.3852 24.2993 15.1953C23.9735 15.3655 23.6473 15.5825 23.4645 15.9085C23.3478 16.1048 23.3462 16.3603 23.4689 16.5544C23.6578 16.8663 23.9985 17.0487 24.332 17.1748C24.9006 17.371 25.5148 17.3425 26.1079 17.3199C27.8936 17.2375 29.7028 17.4676 31.3855 18.0761C32.6422 18.5244 33.8181 19.1787 34.8865 19.9694C35.6415 20.5277 36.3423 21.155 37 21.8222C35.8948 22.4733 34.7303 23.0345 33.5046 23.4267C32.2175 23.8415 30.8565 24.0659 29.5009 23.9829C28.7722 23.9412 28.0511 23.8001 27.3563 23.5806C26.4819 23.3211 25.6286 22.9938 24.7462 22.7596C24.0689 22.5834 23.3415 22.4727 22.6562 22.6702C22.1184 22.869 21.5878 23.0881 21.0547 23.2997C20.6115 23.4875 20.151 23.639 19.6746 23.7176C18.4578 23.9258 17.1723 23.8208 16.0328 23.3358C15.5507 23.1442 15.0721 22.9436 14.5859 22.7633C14.1327 22.5583 13.6176 22.5367 13.1292 22.59C12.4997 22.6633 11.8921 22.8536 11.2918 23.0474C10.5901 23.2765 9.89247 23.5195 9.17964 23.7142C7.75176 24.0951 6.23513 24.0747 4.79457 23.7713C3.09284 23.416 1.48874 22.6994 0 21.8222C0.869723 20.9397 1.81678 20.1258 2.86178 19.4511C3.91756 18.7596 5.07412 18.2159 6.28774 17.8557C7.74415 17.419 9.27694 17.2569 10.7952 17.3155C11.3863 17.3397 11.9939 17.3745 12.5688 17.208C12.9194 17.0926 13.2737 16.9161 13.4943 16.6127C13.6347 16.4236 13.6677 16.1606 13.5568 15.9502C13.3818 15.6007 13.0386 15.3724 12.6997 15.1947C11.0944 14.3209 9.65697 13.1186 8.60817 11.6254C7.86839 10.5846 7.32133 9.41708 6.94384 8.20288C6.39202 6.42781 6.18949 4.56496 6.1543 2.71371C7.31531 2.999 8.39454 3.53948 9.40531 4.16273C10.9866 5.15247 12.4218 6.37608 13.6271 7.79281C14.5764 8.92676 15.4053 10.2052 15.7786 11.6449C15.952 12.249 16.1621 12.844 16.4331 13.4121C16.7187 13.9958 17.0588 14.5743 17.564 14.9994C17.7485 15.142 17.9685 15.2922 18.2154 15.2564C18.2861 15.253 18.3235 15.1906 18.3637 15.1423C17.7295 14.0319 17.2094 12.8547 16.8471 11.6295C16.4585 10.3168 16.2566 8.9487 16.2718 7.58025C16.2839 6.18515 16.5209 4.79476 16.9425 3.46392C17.327 2.25881 17.8496 1.09696 18.4889 0.00313507Z" fill="#D9C287"/>
</svg>
