<svg xmlns="http://www.w3.org/2000/svg" width="12" height="16" fill="none"><mask id="a" fill="#fff"><path fill-rule="evenodd" d="M10.1729 8.50282c.5476-1.0639.8267-1.92457.8267-2.50282 0-2.76142-2.2386-5-5.00003-5C3.23815 1 .999573 3.23858.999573 6c0 .57825.279027 1.43892.826627 2.50282.53097 1.03157 1.24985 2.13338 1.98523 3.15598.73277 1.0189 1.4677 1.9396 2.02054 2.6065.05799.07.11393.1371.1676.2012.05368-.0641.10962-.1312.1676-.2012.55285-.6669 1.28777-1.5876 2.02054-2.6065.73538-1.0226 1.45426-2.12441 1.98519-3.15598ZM6.65891 15.2363C8.21759 13.3876 11.9996 8.63086 11.9996 6c0-3.31371-2.68632-6-6.00003-6S-.00042725 2.68629-.00042725 6c0 2.63086 3.78198725 7.3876 5.34066725 9.2363.40455.4798.65933.7637.65933.7637s.25478-.2839.65934-.7637Z" clip-rule="evenodd"/><path d="M8.99957 6c0 1.65685-1.34314 3-3 3-1.65685 0-3-1.34315-3-3s1.34315-3 3-3c1.65686 0 3 1.34315 3 3Z"/></mask><path stroke="#fff" stroke-width="2" d="M10.1729 8.50282c.5476-1.0639.8267-1.92457.8267-2.50282 0-2.76142-2.2386-5-5.00003-5C3.23815 1 .999573 3.23858.999573 6c0 .57825.279027 1.43892.826627 2.50282.53097 1.03157 1.24985 2.13338 1.98523 3.15598.73277 1.0189 1.4677 1.9396 2.02054 2.6065.05799.07.11393.1371.1676.2012.05368-.0641.10962-.1312.1676-.2012.55285-.6669 1.28777-1.5876 2.02054-2.6065.73538-1.0226 1.45426-2.12441 1.98519-3.15598ZM6.65891 15.2363C8.21759 13.3876 11.9996 8.63086 11.9996 6c0-3.31371-2.68632-6-6.00003-6S-.00042725 2.68629-.00042725 6c0 2.63086 3.78198725 7.3876 5.34066725 9.2363.40455.4798.65933.7637.65933.7637s.25478-.2839.65934-.7637Z" clip-rule="evenodd" mask="url(#a)"/><path stroke="#fff" stroke-width="2" d="M8.99957 6c0 1.65685-1.34314 3-3 3-1.65685 0-3-1.34315-3-3s1.34315-3 3-3c1.65686 0 3 1.34315 3 3Z" mask="url(#a)"/></svg>